<svg id="Layer_1" data-name="Layer 1" xmlns="http://www.w3.org/2000/svg" viewBox="0 0 400 200"><defs><style>.cls-1,.cls-2{fill:#ff5232;}.cls-1{opacity:0.04;}.cls-3{fill:#ff8067;}.cls-4{fill:#dd2e17;}.cls-5{fill:#efc1bd;}</style></defs><rect class="cls-1" width="400" height="200" rx="12"/><circle class="cls-2" cx="178.5" cy="97.5" r="87.5"/><path class="cls-3" d="M127,167.7a87.5,87.5,0,0,1,51.76-158S64,43,127,168"/><path class="cls-4" d="M129.54,60.64A18.33,18.33,0,0,1,135,58a22.82,22.82,0,0,1,18.42,2.2,25.52,25.52,0,0,1,5,4c.36.39.7.8,1,1.19a11.6,11.6,0,0,1,1,1.24l.91,1.27.8,1.34a28.53,28.53,0,0,1,3.77,11.52,112.78,112.78,0,0,0-7-9.25,42.74,42.74,0,0,0-3.82-3.9,32.09,32.09,0,0,0-4.28-3.13,27.63,27.63,0,0,0-9.93-3.59A43.5,43.5,0,0,0,129.54,60.64Z"/><path class="cls-4" d="M223.55,58.55a42.85,42.85,0,0,0-11.28,1.6,27.45,27.45,0,0,0-9.44,4.75A31.36,31.36,0,0,0,199,68.52a40.1,40.1,0,0,0-3.34,4.33,113.87,113.87,0,0,0-5.82,10A28.62,28.62,0,0,1,192.17,71l.64-1.42.76-1.37a10.22,10.22,0,0,1,.82-1.34c.3-.44.58-.88.9-1.31A25.82,25.82,0,0,1,199.76,61a22.77,22.77,0,0,1,18-4.39A18.47,18.47,0,0,1,223.55,58.55Z"/><path class="cls-5" d="M79,65.25a11,11,0,0,0-9.58,2.33c-.62-3.87-3.94-7.26-8.51-8.22a11,11,0,0,0-9.42,2.18,15.93,15.93,0,0,0-5.21-2.1c-7.62-1.6-14.93,2.49-16.33,9.14s3.65,13.35,11.27,15a16,16,0,0,0,2.16.29c.63,3.86,4,7.25,8.5,8.21s8.92-.79,11.06-4a12.77,12.77,0,0,0,1.25.34c4.93,1,9.69-1.11,11.57-4.93,5.51.9,10.67-2.12,11.68-6.94C88.47,71.47,84.69,66.45,79,65.25Z"/><path class="cls-5" d="M328.44,67.2c-1.4-6.65-8.71-10.74-16.33-9.14a15.93,15.93,0,0,0-5.21,2.1A11,11,0,0,0,297.48,58c-4.57,1-7.89,4.36-8.51,8.23a11,11,0,0,0-9.58-2.33c-5.71,1.2-9.49,6.22-8.45,11.2s6.18,7.84,11.69,7c1.88,3.81,6.64,6,11.57,4.93a12.77,12.77,0,0,0,1.25-.34c2.14,3.25,6.52,5,11.06,4s7.87-4.35,8.5-8.21a16,16,0,0,0,2.16-.29C324.79,80.54,329.84,73.85,328.44,67.2Z"/><ellipse class="cls-4" cx="199.5" cy="82" rx="7.5" ry="12"/><ellipse class="cls-4" cx="155.5" cy="82" rx="7.5" ry="12"/><path class="cls-4" d="M156.77,147.1S183,136,209.33,140.72c.68-.09-8.78-23.23-29.41-22.61S156.77,147.1,156.77,147.1Z"/></svg>