<svg id="Layer_1" data-name="Layer 1" xmlns="http://www.w3.org/2000/svg" viewBox="0 0 400 200"><defs><style>.cls-1,.cls-4{fill:#fbae2f;}.cls-2{fill:#f7b661;}.cls-3{fill:#e29930;}.cls-4{opacity:0.1;}</style></defs><circle class="cls-1" cx="197.5" cy="95.5" r="87.5"/><path class="cls-2" d="M146,165.7a87.5,87.5,0,0,1,51.76-158S83,41,146,166"/><path class="cls-3" d="M139,72a30.13,30.13,0,0,1,3.86-6.56,33.57,33.57,0,0,1,5.35-5.58A27.53,27.53,0,0,1,155,55.71,22.29,22.29,0,0,1,163,54c.69,0,1.39,0,2.09.07l2.07.27c.68.16,1.35.34,2,.51a16.51,16.51,0,0,1,1.94.68,24.11,24.11,0,0,1,6.83,4.2A34.06,34.06,0,0,1,187,72a75.91,75.91,0,0,0-11.33-9.14A26.58,26.58,0,0,0,169.54,60a18.35,18.35,0,0,0-6.41-1,25.93,25.93,0,0,0-12.65,4.09A70,70,0,0,0,139,72Z"/><path class="cls-3" d="M208.62,72.07a29.83,29.83,0,0,1,3.86-6.55,32.86,32.86,0,0,1,5.35-5.59,27.53,27.53,0,0,1,6.79-4.15,22.28,22.28,0,0,1,8-1.75c.7,0,1.4,0,2.09.07l2.08.27,2,.51a18.73,18.73,0,0,1,1.95.68,24.39,24.39,0,0,1,6.83,4.2,34.18,34.18,0,0,1,9,12.31,77.79,77.79,0,0,0-11.34-9.14A26.39,26.39,0,0,0,239.15,60a18.32,18.32,0,0,0-6.41-1,25.78,25.78,0,0,0-12.64,4.1A69,69,0,0,0,208.62,72.07Z"/><path class="cls-3" d="M148,89.27S193,136,246,87c0,0-10.85,53.32-48.19,54S148,89.27,148,89.27Z"/><path class="cls-3" d="M171,188.78A24.3,24.3,0,0,0,186.6,166c.05-8.77-.72-23.62-6.53-23.23-8.23.55-4.55,12-5.84,14.49s-7.39-1.91-9.11-5.47-13.7-22.9-13.7-22.9a5.56,5.56,0,0,0-6.32-.06c-3.5,2.18,0,6.43,0,6.43l10.53,19.6s1.23,3.81-1.29,2.52-15.93-20.08-15.93-20.08-2.18-3.5-5.68-1.32c-2,1.25-3.2,3.13-2,6.94,1.43,4.43,11.52,16.36,14.3,19.59a3.86,3.86,0,0,1,1,2.54c0,.79-.33,1.42-1.59.77-1.93-1-11.56-10.58-16-15a3.94,3.94,0,0,0-6.71,3.23l0,.19c.89,6,18.78,19.16,18.78,19.16s15,20.38,29.26,15.78Z"/><path class="cls-3" d="M230,184.78a24.29,24.29,0,0,1-16.18-22.36c-.26-8.77.15-23.64,6-23.39,8.24.35,4.83,11.86,6.18,14.35s7.35-2.09,9-5.69,13.13-23.23,13.13-23.23a5.57,5.57,0,0,1,6.32-.22c3.56,2.1.19,6.44.19,6.44l-10,19.85s-1.13,3.83,1.35,2.48,15.44-20.46,15.44-20.46,2.1-3.55,5.65-1.46c2,1.2,3.27,3.06,2.13,6.89-1.32,4.46-11.12,16.64-13.82,19.93a3.91,3.91,0,0,0-.92,2.56c0,.79.37,1.42,1.61.74,1.91-1,11.31-10.86,15.6-15.41a3.94,3.94,0,0,1,6.79,3.07c0,.06,0,.12,0,.19-.74,6-18.32,19.61-18.32,19.61s-14.48,20.74-28.86,16.49Z"/><rect class="cls-4" width="400" height="200" rx="12"/></svg>