<svg id="Layer_1" data-name="Layer 1" xmlns="http://www.w3.org/2000/svg" viewBox="0 0 616.6 620.15"><defs><style>.cls-1{fill:none;stroke-width:3px;}.cls-1,.cls-3{stroke:#000;stroke-miterlimit:10;}.cls-2,.cls-3{fill:#fff;}.cls-3{stroke-width:4px;}</style></defs><path class="cls-1" d="M71.59,620.31V60.11A23.06,23.06,0,0,1,94.65,37.05H626.38" transform="translate(-41.9 -35.3)"/><path class="cls-1" d="M594.39,80.36V628.44c0,12.74-9.68,31.45-53.57,22.42l-407,.58" transform="translate(-41.9 -35.3)"/><path d="M316.42,544.36c11.26-8,22.2-16.33,33-24.89s21.39-17.37,31.79-26.41a790.34,790.34,0,0,0,59.56-57.2c18.75-20.13,36.36-41.41,51.33-64.47,3.71-5.79,7.31-11.64,10.64-17.64s6.47-12.11,9.29-18.36,5.36-12.62,7.56-19.1a164.34,164.34,0,0,0,5.25-19.82c.29-1.68.67-3.35.9-5l.71-5.07.47-5.09c.16-1.7.17-3.4.27-5.11a147.24,147.24,0,0,0-.94-20.44,117.82,117.82,0,0,0-4-20,75.37,75.37,0,0,0-8.11-18.57,54.31,54.31,0,0,0-13.36-15,49.49,49.49,0,0,0-8.55-5.29,53.22,53.22,0,0,0-9.41-3.59c-1.61-.49-3.27-.82-4.92-1.19s-3.32-.6-5-.78-3.37-.31-5.05-.45-3.39-.14-5.08-.09a104.6,104.6,0,0,0-20.24,2.28,161.83,161.83,0,0,0-38.46,13.8,208.15,208.15,0,0,0-34.67,21.86A188.56,188.56,0,0,0,354,242.14c-2.47,2.37-4.82,4.83-7.15,7.34s-4.67,5.06-7,7.57l-28.41,30.08L310,288.57l-1-1.75a286.53,286.53,0,0,0-18.18-28.36,253.2,253.2,0,0,0-21.45-26A154.32,154.32,0,0,0,244,210.59c-9.26-6.18-19.53-11.09-30.46-12.92a60,60,0,0,0-8.24-.76,58.18,58.18,0,0,0-8.24.53c-.68.1-1.36.24-2,.35s-1.35.25-2,.42l-2,.48-2,.61c-1.32.43-2.67.78-4,1.26l-3.88,1.51a68.87,68.87,0,0,0-14.38,8.26,62.43,62.43,0,0,0-11.67,11.75,77.23,77.23,0,0,0-13.61,30.19,114.72,114.72,0,0,0-2.28,33.38,96.41,96.41,0,0,0,2.65,16.52c.35,1.35.77,2.67,1.22,4s1,2.56,1.6,3.87l3.28,7.82c4.37,10.4,9,20.71,14.33,30.61a195,195,0,0,0,18.35,28.28l2.71,3.23c.92,1.07,1.77,2.19,2.76,3.19l2.87,3.08c.48.51.95,1,1.45,1.54l1.52,1.45c4,4,8.34,7.56,12.59,11.28,17.12,14.77,33.89,30,49.75,46.12,7.89,8.1,15.61,16.37,22.91,25a304.79,304.79,0,0,1,20.45,27,301.92,301.92,0,0,0-20.7-26.82c-7.38-8.55-15.17-16.74-23.13-24.76-16-16-32.89-31-50.14-45.57-4.29-3.68-8.69-7.23-12.77-11.22l-1.55-1.46c-.5-.5-1-1-1.47-1.54l-2.93-3.1c-1-1-1.87-2.14-2.8-3.21l-2.75-3.26a195.59,195.59,0,0,1-18.68-28.42c-5.45-10-10.14-20.29-14.57-30.7l-3.33-7.79c-.56-1.29-1.12-2.58-1.65-4s-.93-2.74-1.3-4.13a97.14,97.14,0,0,1-2.8-16.89,117,117,0,0,1,2.13-34,79.91,79.91,0,0,1,13.88-31.22,65.09,65.09,0,0,1,12.12-12.25,71.6,71.6,0,0,1,14.93-8.61l4-1.58c1.34-.5,2.73-.86,4.1-1.3l2.06-.63c.7-.19,1.4-.35,2.11-.52s1.41-.32,2.12-.44,1.42-.27,2.14-.37a59.71,59.71,0,0,1,8.66-.57,63.91,63.91,0,0,1,8.63.77c11.44,1.9,22,7,31.53,13.29a156.83,156.83,0,0,1,25.93,22.21,258.11,258.11,0,0,1,21.73,26.24,288.16,288.16,0,0,1,18.44,28.66l-2.32-.31,28.31-30.09c2.35-2.51,4.75-5,7-7.59s4.75-5.07,7.27-7.47a190.39,190.39,0,0,1,15.76-13.6,210.54,210.54,0,0,1,35.19-22.11,164.29,164.29,0,0,1,39.18-14A106.58,106.58,0,0,1,462.78,188c1.75,0,3.51.05,5.26.1s3.49.23,5.23.48,3.48.52,5.21.82,3.44.74,5.12,1.26a54.89,54.89,0,0,1,9.87,3.78,52.44,52.44,0,0,1,9,5.58,57.06,57.06,0,0,1,14,15.71A78.19,78.19,0,0,1,524.8,235a119.6,119.6,0,0,1,4,20.48,147.59,147.59,0,0,1,.92,20.82c-.1,1.74-.12,3.48-.28,5.21l-.51,5.2-.75,5.16c-.24,1.72-.63,3.42-.94,5.13A165.47,165.47,0,0,1,521.81,317c-2.26,6.55-4.87,13-7.74,19.28s-6.11,12.43-9.48,18.46-7,11.91-10.81,17.7c-15.18,23.12-33,44.37-51.87,64.45a775.34,775.34,0,0,1-60.18,56.74Q366,507.08,349.67,519.79C338.78,528.24,327.75,536.51,316.42,544.36Z" transform="translate(-41.9 -35.3)"/><path class="cls-2" d="M312.56,451.17l-.43-.75c-6.85-11.91-13.94-34.17-8.86-72.58,3.26-24.59,11.23-51,20.8-68.88,4.19-7.84,8.4-13.37,11.84-15.69-6.13,25.13-2.14,37.49,2.44,43.48,4.41,5.74,9.58,6.19,11.07,6.19a6.17,6.17,0,0,0,3.4-.87l1.45-1-.77-1.57c-10.37-21.27-11.28-40.31-2.7-56.59a52.89,52.89,0,0,1,9.53-12.81,23.31,23.31,0,0,0,1.78,18.6c5.13,9.3,15.91,14.95,19.29,14.95h2.9l-1-2.71c-4-10.41-14.49-38.05-4.32-48.22a148.58,148.58,0,0,1,12.31-10.84,30.87,30.87,0,0,0,6.05,22.34c3.86,5.19,9.19,9.1,12.4,9.1a2.92,2.92,0,0,0,2.66-1.45c1-1.83-.4-4.1-.87-4.84-7.2-11.52-3.4-31.11-2.51-35.15,5.59-3.69,11.54-7.5,15.71-10-1.24,4.85,0,10.32,1.24,13.25.65,1.57,1.47,3,3,3h0a2.22,2.22,0,0,0,2.17-2c2.2-13.18,6.34-19.61,7.19-20.82a253.2,253.2,0,0,1,27.88-16.44c35-19.27,59-23.31,73-23.31a66.76,66.76,0,0,1,6.78.34c-15.14,5.44-29.38,22.81-32.58,26.89H513c-8.64,0-17.74,3.6-26.31,10.42A63.8,63.8,0,0,0,472,229.61c-1.55,2.68-1.88,4.17-1.21,5.34a2.26,2.26,0,0,0,2,1.14c.94,0,2-.46,4.27-2.7,4.87-4.87,11.22-8.1,16.8-10.18-4.95,5.17-10.73,13.92-16.21,28.72-3.7,10-19.39,18.63-32,25.57-11.71,6.44-21,11.54-21.63,17.32a6.56,6.56,0,0,0,2.53,5.76,10,10,0,0,0,7,2.49h0c6.57,0,15.5-4.57,27.14-13.91a123.25,123.25,0,0,0-6.66,18.5c-1.8,6-3.51,11.71-5.89,15.85-5.61,9.73-40.59,23-46.46,24l-8.16-8.16,5.51,11c2.33,4.66,6.74,7.13,12.75,7.13,11.07,0,25.83-8.16,33.73-13.09l-3.94,9.46c-11.58,26.26-36.45,35.84-52.9,42.17-8.75,3.37-14.53,5.6-15.89,9.37a5.16,5.16,0,0,0,.42,4.32c.95,2.2,3.13,4.78,8.11,4.77,11.66,0,33.82-15.19,45.19-24.22-29.38,62.38-92.37,65.66-105.14,65.66-1.13,0-1.74,0-1.77,0l-1.27-.05-16.68,31.69Z" transform="translate(-41.9 -35.3)"/><path d="M537.83,177.61a79,79,0,0,0-13.13,10,126.18,126.18,0,0,0-12.27,13.19c-13,.22-23.95,7.78-30.84,14.14-6.45,6-13.14,14.59-13.14,18.7a4.47,4.47,0,0,0,.89,2.71,4.24,4.24,0,0,0,3.43,1.7c2,0,3.66-1.26,5.69-3.29a38.18,38.18,0,0,1,8.5-6.27,105,105,0,0,0-11.21,22.71c-3.44,9.29-18.77,17.72-31.09,24.5-12.69,7-21.86,12-22.65,18.85-.22,1.91.15,4.75,3.18,7.48a12,12,0,0,0,8.3,3c5.8,0,13.19-3.22,22.39-9.8-1.48,4-2.68,8-3.82,11.81-1.78,5.91-3.45,11.49-5.71,15.43-4.77,8.27-36.23,20.85-44.09,22.77l-16.12-16.13,11,22.08c1.88,3.75,5.92,8.23,14.54,8.23,9.37,0,21.15-5.52,29.57-10.29L439.68,353c-11.27,25.5-35.66,34.89-51.79,41.11-9.26,3.56-15.37,5.92-17.05,10.54a7.07,7.07,0,0,0,.5,5.88c1,2.3,3.61,5.9,9.91,5.9,7.24,0,18.26-4.91,32.73-14.59,1.81-1.22,4.14-2.85,6.61-4.63A106.26,106.26,0,0,1,369,443.67,126.2,126.2,0,0,1,321.3,453.9c-1.08,0-1.67,0-1.68,0l-2.54-.12L315.89,456l-6.35,12.08,4.69-15.51.5-1.66-.86-1.5c-5-8.7-8.23-19.66-9.58-32.58a166.46,166.46,0,0,1,1-38.74c3.23-24.37,11.12-50.5,20.58-68.2a69,69,0,0,1,6.71-10.52c-2.61,13.75-3.06,29.06,4.23,38.58,3.34,4.37,8.07,7,12.65,7a8.07,8.07,0,0,0,4.5-1.21l2.91-1.94-1.53-3.14c-10-20.59-11-39-2.81-54.62a48.84,48.84,0,0,1,4.69-7.32,25.07,25.07,0,0,0,3.18,13c5.38,9.75,16.84,16,21,16h5.8l-2.07-5.43c-3.47-9.11-14-36.84-4.78-46.09,2.88-2.88,6-5.6,8.66-7.85a33.29,33.29,0,0,0,6.69,19.13c4.34,5.83,10.1,9.91,14,9.91a4.93,4.93,0,0,0,4.41-2.48c1.58-2.86-.3-5.88-.92-6.87-6.42-10.28-3.48-27.73-2.42-32.87,3.9-2.57,8-5.2,11.44-7.37a26.6,26.6,0,0,0,1.87,10.11c.48,1.17,1.77,4.28,4.87,4.28a4.2,4.2,0,0,0,4.15-3.65c2-12,5.63-18.16,6.65-19.71a254.43,254.43,0,0,1,27.34-16.09l.07,0,.07,0c33.42-18.41,56.66-22.75,70.6-23m1.36-4c-14.76,0-39,4.31-73.89,23.52a252.62,252.62,0,0,0-28.4,16.78s-5.16,6.45-7.74,21.94c0,.21-.11.31-.21.31-1.11,0-5.72-12.45.21-18.38.56-.56.68-.81.46-.81-1.67,0-22.41,13.72-22.41,13.72s-6,23.72,2.58,37.44c1.38,2.2,1.11,3.23-.09,3.23-4.43,0-21.49-13.92-15.4-34.22,0,0,0,0,0,0a145.53,145.53,0,0,0-16.8,14.23c-10.28,10.29-2,34.83,3.88,50.35-3.88,0-31-14.2-15.49-38.73,0,0-40,24.53-14.2,77.45a4.2,4.2,0,0,1-2.29.54c-6.67,0-21.86-9.28-10.62-50.88-19.37,1.29-58.09,109.72-28.4,161.36l-14,46.22a.93.93,0,0,0,.91,1.21.87.87,0,0,0,.8-.51l21.3-40.47s.66,0,1.87,0c12.29,0,82.23-3.21,110.44-74.9-1.08,2.16-35.39,29.46-50.49,29.46-3,0-5.24-1.07-6.31-3.64-6.45-11.62,49.05-10.33,68.42-54.22l6.45-15.49s-23,16.35-38.09,16.35c-4.79,0-8.78-1.66-11-6a.54.54,0,0,0,.35.08c4.24,0,42.51-14.26,48.7-25,6.46-11.2,7.75-31.86,19.36-44.77a24.83,24.83,0,0,0,2.09-2.4c-.38,0-24.07,23.74-37.77,23.74a8.09,8.09,0,0,1-5.62-2c-12.91-11.62,43.56-24.69,51.63-46.48C490,224.26,501.37,219,505.23,218c-4.62.83-19.84,4.21-29.6,14-1.48,1.48-2.41,2.12-2.86,2.12-3,0,16.08-29.26,40.23-29.26q.68,0,1.35,0s21.42-28.55,40.26-28.55a18.15,18.15,0,0,1,2.34.15s-5.72-2.86-17.76-2.86Zm-32.58,44.17a6.17,6.17,0,0,0-1.38.23c.88-.16,1.38-.23,1.38-.23Z" transform="translate(-41.9 -35.3)"/><path class="cls-3" d="M320.08,444.32s78.74-163.94,131.67-201.38" transform="translate(-41.9 -35.3)"/><path d="M540.48,622.52c17.56,12.82,31.71,19.33,42,19.33a18.92,18.92,0,0,0,8.21-1.72c-3.69,8.18-12.61,12.31-26.66,12.31a86.33,86.33,0,0,1-18.94-2.26l-.37-.1H95.94c-18.83,0-33.15-5.22-42.54-15.54a38.21,38.21,0,0,1-7.46-12H540.48m1-3H41.9s6.11,33.56,54,33.56H544.38a88.38,88.38,0,0,0,19.7,2.36c14.46,0,31.6-4.42,31.6-25.42,0,0-1.78,8.83-13.15,8.83-8,0-20.79-4.39-41.07-19.33Z" transform="translate(-41.9 -35.3)"/><path class="cls-1" d="M594.18,79.5s-6.93-42.81,30.2-42.7c37.71.1,32.36,42.7,32.36,42.7Z" transform="translate(-41.9 -35.3)"/></svg>