<svg id="Layer_1" data-name="Layer 1" xmlns="http://www.w3.org/2000/svg" viewBox="0 0 400 200"><defs><style>.cls-1,.cls-6{fill:#fbae2f;}.cls-2{fill:#f7b661;}.cls-3{fill:#c21900;}.cls-4{fill:none;stroke:#000;stroke-miterlimit:10;stroke-width:2px;}.cls-5{fill:#ff1900;}.cls-6{opacity:0.1;}</style></defs><circle class="cls-1" cx="193.5" cy="98.5" r="87.5"/><path class="cls-2" d="M142,168.7a87.5,87.5,0,0,1,51.76-158S79,44,142,169"/><path class="cls-3" d="M155,110.81s39.81,3,78-1.81c0,0-8.64,42.46-38.38,43S155,110.81,155,110.81Z"/><path class="cls-4" d="M161.23,188.8A19.44,19.44,0,0,0,172,169.56c-.59-7-2.27-18.75-6.87-18-6.51,1-2.76,9.85-3.61,12s-6-1-7.65-3.7-12.54-17.25-12.54-17.25a4.44,4.44,0,0,0-5,.41c-2.63,2,.44,5.12.44,5.12l9.78,14.85s1.25,2.94-.85,2.09-14.12-14.84-14.12-14.84a3.23,3.23,0,0,0-4.62-.64c-1.49,1.13-2.31,2.72-1.06,5.66,1.45,3.43,10.34,12.2,12.78,14.57a3.09,3.09,0,0,1,1,2c.05.63-.16,1.16-1.21.73-1.61-.64-10-7.59-13.79-10.81a3.14,3.14,0,0,0-5.11,3.05l0,.15c1.14,4.73,16.33,13.9,16.33,13.9s13.39,15.16,24.42,10.47Z"/><path class="cls-4" d="M236.38,185.44a19.42,19.42,0,0,1-14.48-16.65c-.84-6.95-1.58-18.82,3.07-19,6.58-.31,4.7,9.09,5.95,11s5.7-2.18,6.74-5.16,8.79-19.44,8.79-19.44a4.46,4.46,0,0,1,5-.62c3,1.41.6,5.1.6,5.1l-6.57,16.53s-.63,3.13,1.25,1.88,10.83-17.4,10.83-17.4a3.23,3.23,0,0,1,4.39-1.56c1.69.8,2.82,2.19,2.19,5.33-.73,3.65-7.66,14-9.57,16.86a3.1,3.1,0,0,0-.55,2.1c.08.63.39,1.1,1.33.47,1.44-1,8.22-9.46,11.32-13.38a3.14,3.14,0,0,1,5.62,1.95v.15c-.16,4.86-13.18,16.93-13.18,16.93s-10,17.55-21.79,15.19Z"/><path class="cls-3" d="M203.71,60.63a12.06,12.06,0,0,1,22.09-6.69,12,12,0,0,1,8.52-3.52c6.66,0,12.69,5.43,12.06,12.06-1.86,19.48-22.27,26.9-22.27,26.9s-3.71-1.85-13-9.27S203.71,60.63,203.71,60.63Z"/><path class="cls-5" d="M209.74,62.3A8.89,8.89,0,0,1,226,57.37a8.88,8.88,0,0,1,6.28-2.59c4.91,0,9.35,4,8.89,8.89C239.83,78,224.79,83.5,224.79,83.5s-2.74-1.37-9.58-6.84S209.74,62.3,209.74,62.3Z"/><path class="cls-3" d="M188.64,63.21a12.05,12.05,0,0,0-22.09-6.68A12,12,0,0,0,158,53c-6.66,0-12.69,5.43-12.06,12.06C147.83,84.55,168.23,92,168.23,92s3.71-1.86,13-9.28S188.64,63.21,188.64,63.21Z"/><path class="cls-5" d="M182.6,65.88A8.88,8.88,0,0,0,166.32,61a8.85,8.85,0,0,0-6.28-2.6c-4.91,0-9.36,4-8.89,8.89,1.37,14.36,16.41,19.83,16.41,19.83s2.74-1.37,9.57-6.84S182.6,65.88,182.6,65.88Z"/><path class="cls-5" d="M162.51,114.47s32.43,2.42,63.57-1.47c0,0-7,34.58-31.26,35S162.51,114.47,162.51,114.47Z"/><path class="cls-5" d="M269,23.52a7.51,7.51,0,0,1,13.77-4.17A7.52,7.52,0,0,1,288,17.16c4.15,0,7.91,3.38,7.52,7.51-1.16,12.15-13.88,16.77-13.88,16.77s-2.31-1.15-8.1-5.78S269,23.52,269,23.52Z"/><path class="cls-5" d="M298.19,60.57a4.41,4.41,0,0,1,8.08-2.45,4.39,4.39,0,0,1,3.12-1.29,4.27,4.27,0,0,1,4.41,4.42c-.68,7.13-8.14,9.84-8.14,9.84a33.48,33.48,0,0,1-4.76-3.39C297.51,65,298.19,60.57,298.19,60.57Z"/><path class="cls-5" d="M119.6,20.92a7.52,7.52,0,0,0-13.78-4.17,7.46,7.46,0,0,0-5.3-2.19c-4.16,0-7.92,3.38-7.52,7.51,1.15,12.15,13.88,16.77,13.88,16.77s2.31-1.15,8.09-5.78S119.6,20.92,119.6,20.92Z"/><path class="cls-5" d="M90.36,58a4.41,4.41,0,0,0-8.09-2.45,4.38,4.38,0,0,0-3.11-1.29,4.28,4.28,0,0,0-4.42,4.41c.68,7.13,8.15,9.85,8.15,9.85a33.19,33.19,0,0,0,4.75-3.39C91,62.38,90.36,58,90.36,58Z"/><rect class="cls-6" width="400" height="200" rx="12"/></svg>