<svg id="Layer_1" data-name="Layer 1" xmlns="http://www.w3.org/2000/svg" viewBox="0 0 400 200"><defs><style>.cls-1,.cls-4{fill:#45cb32;}.cls-2{fill:#7ecb69;}.cls-3{fill:#3ca529;}.cls-4{opacity:0.1;}</style></defs><circle class="cls-1" cx="178.5" cy="97.5" r="87.5"/><path class="cls-2" d="M127,167.7a87.5,87.5,0,0,1,51.76-158S64,43,127,168"/><ellipse class="cls-3" cx="208.5" cy="77" rx="7.5" ry="10"/><ellipse class="cls-3" cx="156.5" cy="77" rx="7.5" ry="10"/><path class="cls-3" d="M160,130c.49-.38,1-.68,1.48-1l1.49-.9c1-.6,2-1.12,3-1.61,2,.06,4,0,5.94,0h29.66c1,.52,2,1,3,1.62s2,1.18,3,1.88c-1,.7-2,1.3-3,1.88s-2,1.1-3,1.62H171.87c-2,0-4,0-5.94,0-1-.5-2-1-3-1.62l-1.49-.9C161,130.68,160.49,130.38,160,130Z"/><rect class="cls-4" width="400" height="200" rx="12"/></svg>