<svg id="Layer_1" data-name="Layer 1" xmlns="http://www.w3.org/2000/svg" viewBox="0 0 424.73 375.12"><defs><style>.cls-1{fill:#d6ccc1;}.cls-2{fill:none;stroke:#bcb4ac;stroke-miterlimit:10;stroke-width:4px;}</style></defs><path class="cls-1" d="M395.59,473.34l-21.3-40.47S293,436.74,262,358c1.29,2.58,50.34,41.31,56.8,25.82,6.45-11.62-49.06-10.33-68.42-54.22l-6.45-15.49s40,28.4,49.05,10.33c-1.29,1.29-42.6-13.73-49.05-24.94s-7.75-31.86-19.37-44.77,28.4,31,41.31,19.37-43.56-24.69-51.63-46.48c-12.91-34.85-27.11-34.85-27.11-34.85s19.36,2.58,31,14.2-10.33-28.4-38.73-27.11c0,0-23.23-31-42.6-28.4,0,0,28.4-14.2,91.66,20.66a251.92,251.92,0,0,1,28.39,16.78s5.17,6.45,7.75,21.94c.42,2.55,6.45-11.61,0-18.07-4.76-4.76,21.94,12.91,21.94,12.91s6,23.72-2.58,37.44c-6.45,10.32,23.24-5.17,15.49-31a139.49,139.49,0,0,1,16.78,14.2c10.29,10.29,2,34.83-3.87,50.35,3.87,0,31-14.2,15.49-38.73,0,0,40,24.53,14.2,77.45,3.87,2.59,25.82-2.58,12.91-50.34,19.36,1.29,58.09,109.72,28.4,161.36l14,46.22A.93.93,0,0,1,395.59,473.34Z" transform="translate(-136.77 -148.6)"/><path class="cls-2" d="M380.65,438.32S301.91,274.38,249,236.94" transform="translate(-136.77 -148.6)"/><path class="cls-1" d="M399.69,485.92a83.36,83.36,0,0,0,10,22.82c3.35,5.06,7.62,9.92,13.1,12.73a18.66,18.66,0,0,0,14.59,1.34c5.79-2,10.13-6.53,13.9-11.17,4.53-5.58,8.43-11.64,13-17.21,3.24-4,7.64-9.39,13.16-9.92,3.55-.34,6.76,1.82,9.36,4,3.41,2.84,6.38,6.15,9.66,9.13,5.64,5.1,12.34,9.22,19.81,10.92,15.34,3.5,29.81-4.23,40.22-15.08,1.64-1.7,3.18-3.49,4.67-5.32,1.2-1.49-.91-3.62-2.13-2.12-9.41,11.64-22.88,22-38.7,20.2-7.07-.81-13.71-4.14-19.21-8.56-3.37-2.71-6.32-5.88-9.46-8.84-2.82-2.67-5.9-5.36-9.62-6.68-5.66-2-11,1-15,4.84-4.92,4.63-8.76,10.37-12.72,15.8-6,8.23-14.24,20.49-26.17,17.52-5.2-1.3-9.45-5-12.81-9-4.8-5.76-8.14-12.75-10.66-19.77-.75-2.11-1.43-4.24-2.06-6.39-.54-1.85-3.43-1.07-2.89.79Z" transform="translate(-136.77 -148.6)"/></svg>