<svg id="Layer_1" data-name="Layer 1" xmlns="http://www.w3.org/2000/svg" viewBox="0 0 172.51 195"><defs><style>.cls-1{fill:#d6ccc1;}.cls-2{fill:#e5e5e5;}.cls-3{fill:none;stroke:#d6ccc1;stroke-miterlimit:10;stroke-width:0.5px;}.cls-4{fill:#ce8989;}.cls-5{fill:#d3d1d1;}</style></defs><path class="cls-1" d="M196,161l35,10s-16,5-16,16l-55.62-18.56L112.1,150.79a2.45,2.45,0,0,1-1.45-3.13,17.17,17.17,0,0,1,13.65-11.33,8.18,8.18,0,0,1,4.46.45C139.56,141.08,196,161,196,161Z" transform="translate(-109 -3)"/><ellipse class="cls-2" cx="222.74" cy="178.81" rx="11.37" ry="5.43" transform="translate(-171.15 196.43) rotate(-42.9)"/><path class="cls-2" d="M281.51,96.18l-6.13-2.27S267.31,72.18,250.55,84s-14.36,14.09-14.63-3.51S235,52.31,217,35.55,195.26,3.83,195.26,3.83s-3.88-4.28-5.65,6.58-2.39,10.86-4.25,12.1-4.34,5-1.24,11.18a8.4,8.4,0,0,1-3.73,6.2c-3.1,1.87,2.49,7.45,3.73,8.07s-1.24,5-3.73,5.59-.62,8.07,3.11,8.69-.62,7.45-.62,7.45,2.48,7.45,6.83,8.69-19.87-8.69-29.8-8.69-43.46-14.28-43.46-14.28-1.86.62,1.24,5,5.59,5,6.21,7.45,2.48,9.31,6.83,9.93,5,6.21,5,6.21-1.25,4.35,3.72,5.59,8.12,3.93,8.1,6.62,2.45,12,7.42,10.76a7.2,7.2,0,0,1,3.73,6.21c0,4.35,8.69,8.07,9.93,6.21s6.21,4.34,6.83,5,8.07,1.86,9.93,1.24,2.5,3.1-5,8.69-28.56,18-34.15,19.86S109,170.3,109,174.32s5.59,2.78,9.31,2.15S127,187,143.77,174.61c0,0,4.34,2.49,11.79-3.72S184.12,161,184.12,161s73.88-1.24,85.67-57.73Z" transform="translate(-109 -3)"/><ellipse class="cls-3" cx="223.47" cy="179.87" rx="9.03" ry="2.4" transform="translate(-171.67 197.22) rotate(-42.9)"/><path class="cls-1" d="M215.76,185.76a1.76,1.76,0,0,0,1.27.47,4.58,4.58,0,0,0,1.37-.19,11.9,11.9,0,0,0,2.54-1.1,23.93,23.93,0,0,0,4.39-3.37,25,25,0,0,0,3.53-4.23,11.74,11.74,0,0,0,1.23-2.42,1.82,1.82,0,0,0-2.46-2.65,11.42,11.42,0,0,0-2.51,1,25,25,0,0,0-4.47,3.21,23.66,23.66,0,0,0-3.68,4.13,12.28,12.28,0,0,0-1.29,2.46,4.4,4.4,0,0,0-.29,1.34A1.73,1.73,0,0,0,215.76,185.76Zm0,0a1.77,1.77,0,0,1-.39-1.3,4.56,4.56,0,0,1,.27-1.36,12.11,12.11,0,0,1,1.27-2.48,24.67,24.67,0,0,1,3.57-4.27,24,24,0,0,1,4.43-3.4,12,12,0,0,1,2.6-1.13,4.6,4.6,0,0,1,1.44-.2,2,2,0,0,1,1.44.55,2,2,0,0,1,.45,1.48,5.14,5.14,0,0,1-.31,1.42,12.74,12.74,0,0,1-1.31,2.51,24.65,24.65,0,0,1-3.72,4.17A25,25,0,0,1,221,185a12.29,12.29,0,0,1-2.56,1.08,4.93,4.93,0,0,1-1.38.17A1.77,1.77,0,0,1,215.76,185.76Z" transform="translate(-109 -3)"/><path class="cls-2" d="M199.22,161.92a3.66,3.66,0,0,1,.46-.31c2.12-1.31-5.66,2.35-8.66-.48l-1.2-1.55,1.68-.08s8.07.69,10.3.8c1.24,0,.77,1.27-.08,2.33" transform="translate(-109 -3)"/><path class="cls-4" d="M189.82,161.07s-9.56,1-7.69,15c-.26-.06-5.24-1.74-5.24-1.74s-1.18-10.16,6.47-13.22c.28-.14,7.12-.63,7.12-.63Z" transform="translate(-109 -3)"/><path class="cls-4" d="M176.89,174.29S165,175,166,182s1,11-2,12,2,4,2,4,5-4,4.5-9.48,4.16-9.83,6.33-10.67a2.75,2.75,0,0,0,1.56-3.24" transform="translate(-109 -3)"/><path class="cls-4" d="M181.44,175.69A13,13,0,0,1,180,183a14.36,14.36,0,0,0-1.53,9.67c.53,2.33,4.84,2.7,5.18,4.51S186,196,186,196s-3.82-3.1-3.91-5.05S185,186,184,183s0-5-1-6-.92-1.31-.92-1.31" transform="translate(-109 -3)"/><circle class="cls-5" cx="152.5" cy="88.5" r="3.5"/></svg>