<svg id="Layer_1" data-name="Layer 1" xmlns="http://www.w3.org/2000/svg" viewBox="0 0 400 200"><defs><style>.cls-1,.cls-6{fill:#0e7de0;}.cls-2{fill:#4ea4e5;}.cls-3{fill:#0067b6;}.cls-4{fill:#116599;}.cls-5{fill:none;stroke:#cad3dd;stroke-miterlimit:10;}.cls-6{opacity:0.1;}</style></defs><circle class="cls-1" cx="195.5" cy="97.5" r="87.5"/><path class="cls-2" d="M144,167.7a87.5,87.5,0,0,1,51.76-158S81,43,144,168"/><path class="cls-3" d="M208.74,66.31a21.56,21.56,0,0,1,8.86-6.68,19.55,19.55,0,0,1,5.69-1.41,16.11,16.11,0,0,1,6.1.65c.49.17,1,.34,1.46.55l1.41.69a16.88,16.88,0,0,1,6.22,6.41,22.35,22.35,0,0,1,2.85,10.74,69.28,69.28,0,0,0-6.07-8.47,19.78,19.78,0,0,0-3.46-3.18,13.16,13.16,0,0,0-3.92-2,19,19,0,0,0-9.15-.25A63,63,0,0,0,208.74,66.31Z"/><path class="cls-4" d="M221,145.89S201,134,173,147c0,0,5.7-17.51,24-17.84S221,145.89,221,145.89Z"/><ellipse class="cls-4" cx="224.5" cy="87" rx="7.5" ry="10"/><ellipse class="cls-4" cx="172.5" cy="87" rx="7.5" ry="10"/><path class="cls-3" d="M184.15,69.85a62.71,62.71,0,0,0-10-2.92,18.81,18.81,0,0,0-9.14.25,12.87,12.87,0,0,0-3.93,2,20.07,20.07,0,0,0-3.46,3.17,72,72,0,0,0-6.06,8.47,22.1,22.1,0,0,1,2.85-10.73,17,17,0,0,1,3.72-4.62,16.72,16.72,0,0,1,2.5-1.8L162,63c.47-.2,1-.37,1.46-.55a15.89,15.89,0,0,1,6.1-.64,19.24,19.24,0,0,1,5.69,1.41A21.66,21.66,0,0,1,184.15,69.85Z"/><path class="cls-5" d="M233.45,100.41s3.26,5.85,6.15,8.74S241.41,120,236.53,120,230.92,110.46,233.45,100.41Z"/><rect class="cls-6" width="400" height="200" rx="12"/></svg>